<svg width="16" height="17" viewBox="0 0 16 17" fill="none" xmlns="http://www.w3.org/2000/svg">
<g opacity="0.7">
<path d="M8.66667 13.8307H8C7.46957 13.8307 6.96086 13.62 6.58579 13.2449C6.21071 12.8699 6 12.3612 6 11.8307V5.16406C6 4.63363 6.21071 4.12492 6.58579 3.74985C6.96086 3.37478 7.46957 3.16406 8 3.16406H8.66667" stroke="#343A40" stroke-width="1.4" stroke-linecap="round" stroke-linejoin="round"/>
<path d="M3.33398 3.16406H4.00065C4.53108 3.16406 5.03979 3.37478 5.41486 3.74985C5.78994 4.12492 6.00065 4.63363 6.00065 5.16406V11.8307C6.00065 12.3612 5.78994 12.8699 5.41486 13.2449C5.03979 13.62 4.53108 13.8307 4.00065 13.8307H3.33398" stroke="#343A40" stroke-width="1.4" stroke-linecap="round" stroke-linejoin="round"/>
<path d="M8.73242 5.76562H13.2658C13.6328 5.77887 13.9813 5.93062 14.241 6.19035C14.5008 6.45009 14.6525 6.79854 14.6658 7.16562V9.83229C14.664 10.2031 14.5159 10.5581 14.2538 10.8203C13.9916 11.0825 13.6365 11.2305 13.2658 11.2323H8.73242" stroke="#343A40" stroke-width="1.4" stroke-linecap="round" stroke-linejoin="round"/>
<path d="M3.20065 11.2323H2.73398C2.3669 11.2191 2.01845 11.0673 1.75871 10.8076C1.49898 10.5478 1.34723 10.1994 1.33398 9.83229V7.16562C1.34723 6.79854 1.49898 6.45009 1.75871 6.19035C2.01845 5.93062 2.3669 5.77887 2.73398 5.76562H3.20065" stroke="#343A40" stroke-width="1.4" stroke-linecap="round" stroke-linejoin="round"/>
</g>
</svg>
