<svg width="260" height="411" viewBox="0 0 260 411" fill="none" xmlns="http://www.w3.org/2000/svg">
<path d="M180.355 72.125C161.227 52.9963 135.282 42.2499 108.23 42.2499C81.1783 42.2499 55.2342 52.9963 36.1055 72.125M153.308 99.1718C147.389 93.2521 140.361 88.5563 132.626 85.3526C124.892 82.1488 116.602 80.4999 108.23 80.4999C99.8586 80.4999 91.5688 82.1488 83.8343 85.3526C76.0998 88.5563 69.072 93.2521 63.1523 99.1718M126.262 126.219C121.479 121.436 114.993 118.75 108.23 118.75C101.467 118.75 94.9813 121.436 90.1991 126.219" stroke="#6C757D" stroke-width="2" stroke-linecap="round" stroke-linejoin="round"/>
<path d="M227.501 367.302C220.535 353.36 205.835 335.062 205.835 318.855C205.835 300.45 209.81 277.754 201.263 260.648C197.645 253.433 195.001 246.12 195.001 237.898V198.627C195.001 197.393 194.512 196.21 193.641 195.337C192.769 194.464 191.587 193.972 190.354 193.969C186.696 193.967 183.073 194.687 179.693 196.086C176.314 197.485 173.243 199.537 170.656 202.123C168.069 204.71 166.018 207.781 164.619 211.161C163.219 214.541 162.5 218.163 162.501 221.821M86.668 345.635L126.047 370.249C128.647 371.874 130.879 374.04 132.59 376.597L140.835 388.969" stroke="#6C757D" stroke-width="2" stroke-linecap="round" stroke-linejoin="round"/>
<path d="M54.459 313.138C55.0548 325.022 56.8207 332.421 62.0965 337.708C70.0265 345.638 82.7882 345.638 108.333 345.638C133.878 345.638 146.629 345.638 154.57 337.708C162.5 329.767 162.5 317.006 162.5 291.471V226.471C162.5 200.937 162.5 188.165 154.57 180.235C146.629 172.305 133.867 172.305 108.333 172.305C82.799 172.305 70.0265 172.305 62.0965 180.235C56.8207 185.511 55.0548 192.921 54.459 204.805" stroke="#6C757D" stroke-width="2" stroke-linecap="round" stroke-linejoin="round"/>
<path d="M46.0417 231.888H62.2917C65.8831 231.888 69.3275 230.461 71.8671 227.922C74.4066 225.382 75.8333 221.938 75.8333 218.346C75.8333 214.755 74.4066 211.311 71.8671 208.771C69.3275 206.231 65.8831 204.805 62.2917 204.805H46.0417C42.4502 204.805 39.0058 206.231 36.4663 208.771C33.9267 211.311 32.5 214.755 32.5 218.346C32.5 221.938 33.9267 225.382 36.4663 227.922C39.0058 230.461 42.4502 231.888 46.0417 231.888ZM46.0417 231.888H73.125C76.7165 231.888 80.1608 233.315 82.7004 235.854C85.24 238.394 86.6667 241.838 86.6667 245.43C86.6667 249.021 85.24 252.466 82.7004 255.005C80.1608 257.545 76.7165 258.971 73.125 258.971H46.0417M46.0417 231.888C42.4502 231.888 39.0058 233.315 36.4663 235.854C33.9267 238.394 32.5 241.838 32.5 245.43C32.5 249.021 33.9267 252.466 36.4663 255.005C39.0058 257.545 42.4502 258.971 46.0417 258.971M46.0417 258.971H62.2917C65.8831 258.971 69.3275 260.398 71.8671 262.938C74.4066 265.477 75.8333 268.922 75.8333 272.513C75.8333 276.104 74.4066 279.549 71.8671 282.088C69.3275 284.628 65.8831 286.055 62.2917 286.055H46.0417M46.0417 258.971C42.4502 258.971 39.0058 260.398 36.4663 262.938C33.9267 265.477 32.5 268.922 32.5 272.513C32.5 276.104 33.9267 279.549 36.4663 282.088C39.0058 284.628 42.4502 286.055 46.0417 286.055M46.0417 286.055H56.875C60.4665 286.055 63.9108 287.481 66.4504 290.021C68.99 292.561 70.4167 296.005 70.4167 299.596C70.4167 303.188 68.99 306.632 66.4504 309.172C63.9108 311.711 60.4665 313.138 56.875 313.138H46.0417C42.4502 313.138 39.0058 311.711 36.4663 309.172C33.9267 306.632 32.5 303.188 32.5 299.596C32.5 296.005 33.9267 292.561 36.4663 290.021C39.0058 287.481 42.4502 286.055 46.0417 286.055ZM108.333 313.138H108.431" stroke="#6C757D" stroke-width="2" stroke-linecap="round" stroke-linejoin="round"/>
</svg>
