<svg width="16" height="16" viewBox="0 0 16 16" fill="none" xmlns="http://www.w3.org/2000/svg">
<g opacity="0.7" clip-path="url(#clip0_469_3850)">
<path d="M8.00065 14.6693C11.6825 14.6693 14.6673 11.6845 14.6673 8.0026C14.6673 4.32071 11.6825 1.33594 8.00065 1.33594C4.31875 1.33594 1.33398 4.32071 1.33398 8.0026C1.33398 11.6845 4.31875 14.6693 8.00065 14.6693Z" stroke="#414141" stroke-width="1.4" stroke-linecap="round" stroke-linejoin="round"/>
<path d="M6.06055 6.00038C6.21728 5.55483 6.52665 5.17912 6.93385 4.9398C7.34105 4.70049 7.81981 4.61301 8.28533 4.69285C8.75085 4.7727 9.17309 5.01473 9.47726 5.37607C9.78144 5.7374 9.94792 6.19473 9.94721 6.66705C9.94721 8.00038 7.94721 8.66705 7.94721 8.66705" stroke="#343A40" stroke-width="1.4" stroke-linecap="round" stroke-linejoin="round"/>
<path d="M8 11.3359H8.00667" stroke="#343A40" stroke-width="1.4" stroke-linecap="round" stroke-linejoin="round"/>
</g>
<defs>
<clipPath id="clip0_469_3850">
<rect width="16" height="16" fill="white"/>
</clipPath>
</defs>
</svg>
