<svg width="24" height="24" viewBox="0 0 24 24" fill="none" xmlns="http://www.w3.org/2000/svg">
<path d="M3 3V8H8" stroke="#6C757D" stroke-width="1.4" stroke-linecap="round" stroke-linejoin="round"/>
<path d="M3.05 13.0035C3.27151 15.0093 4.1607 16.8825 5.57478 18.3222C6.98886 19.7619 8.84577 20.6846 10.8473 20.9421C12.8488 21.1996 14.8788 20.7769 16.6112 19.742C18.3436 18.707 19.678 17.1199 20.3999 15.2355C21.1219 13.351 21.1896 11.2786 20.5921 9.35108C19.9947 7.42354 18.7668 5.75272 17.1056 4.60695C15.4444 3.46118 13.4463 2.90696 11.4322 3.03328C9.41817 3.15961 7.50501 3.95915 6 5.30351L3 8.00351" stroke="#6C757D" stroke-width="1.4" stroke-linecap="round" stroke-linejoin="round"/>
<path d="M12 7V12L16 14" stroke="#6C757D" stroke-width="1.4" stroke-linecap="round" stroke-linejoin="round"/>
</svg>
