<svg width="80" height="80" viewBox="0 0 80 80" fill="none" xmlns="http://www.w3.org/2000/svg">
<rect x="2" y="2" width="76" height="76" rx="38" stroke="#FF3145" stroke-width="4"/>
<path d="M63.5743 68.6146L58.2676 63.308C57.4943 65.3346 55.5743 66.668 53.3343 66.668H47.7876C47.4943 62.908 46.6676 59.3346 45.2543 56.0013H50.9609L26.6676 31.708V37.3346C24.9609 36.6413 23.1743 36.0813 21.3343 35.6546V26.3746L10.9609 16.0013L14.3743 12.6146L66.9609 65.228L63.5743 68.6146ZM53.3343 21.3346V44.8013L58.6676 50.1346V16.0013C58.6676 14.5868 58.1057 13.2303 57.1055 12.2301C56.1053 11.2299 54.7488 10.668 53.3343 10.668H26.6676C24.6409 10.668 22.9076 11.8146 22.0009 13.468L29.8676 21.3346H53.3343ZM13.3343 61.3346V69.3346H21.3343C21.3343 64.908 17.7609 61.3346 13.3343 61.3346ZM13.3343 50.668V56.0013C20.6943 56.0013 26.6676 61.9746 26.6676 69.3346H32.0009C32.0009 59.0146 23.6543 50.668 13.3343 50.668ZM13.3343 40.0013V45.3346C19.6995 45.3346 25.804 47.8632 30.3048 52.3641C34.8057 56.8649 37.3343 62.9694 37.3343 69.3346H42.6676C42.6676 53.1213 29.5476 40.0013 13.3343 40.0013Z" fill="#FF3145"/>
</svg>
