<svg width="32" height="32" viewBox="0 0 32 32" fill="none" xmlns="http://www.w3.org/2000/svg">
<path d="M19 6H13C12.4477 6 12 6.44772 12 7V9C12 9.55228 12.4477 10 13 10H19C19.5523 10 20 9.55228 20 9V7C20 6.44772 19.5523 6 19 6Z" stroke="#6C757D" stroke-width="1.4" stroke-linecap="round" stroke-linejoin="round"/>
<path d="M20 8H22C22.5304 8 23.0391 8.21071 23.4142 8.58579C23.7893 8.96086 24 9.46957 24 10V24C24 24.5304 23.7893 25.0391 23.4142 25.4142C23.0391 25.7893 22.5304 26 22 26H10C9.46957 26 8.96086 25.7893 8.58579 25.4142C8.21071 25.0391 8 24.5304 8 24V10C8 9.46957 8.21071 8.96086 8.58579 8.58579C8.96086 8.21071 9.46957 8 10 8H12" stroke="#6C757D" stroke-width="1.4" stroke-linecap="round" stroke-linejoin="round"/>
</svg>
