<svg width="158" height="159" viewBox="0 0 158 159" fill="none" xmlns="http://www.w3.org/2000/svg">
<path d="M113.696 31.0781C121.278 36.6714 127.44 43.9669 131.686 52.377C135.933 60.7872 138.145 70.0771 138.145 79.4985C138.145 88.92 135.933 98.2099 131.686 106.62C127.44 115.03 121.278 122.326 113.696 127.919M100.529 48.3923C105.52 51.923 109.61 56.5783 112.469 61.982C115.328 67.3856 116.876 73.3861 116.988 79.4985C116.876 85.611 115.328 91.6114 112.469 97.0151C109.61 102.419 105.52 107.074 100.529 110.605M88.416 64.5215C90.7516 66.2581 92.6486 68.5169 93.9556 71.1174C95.2626 73.7179 95.9432 76.5881 95.9432 79.4985C95.9432 82.409 95.2626 85.2791 93.9556 87.8797C92.6486 90.4802 90.7516 92.739 88.416 94.4756" stroke="#00A19D" stroke-linecap="round" stroke-linejoin="round"/>
<path d="M42.791 109.125C38.7138 109.125 34.8735 108.346 31.2702 106.788C27.6669 105.228 24.5289 103.11 21.856 100.435C19.1832 97.76 17.0656 94.6219 15.5031 91.0208C13.9407 87.4198 13.1616 83.5795 13.166 79.5C13.166 75.4096 13.9451 71.566 15.5031 67.9693C17.0634 64.3704 19.181 61.2356 21.856 58.565C24.5311 55.8944 27.6691 53.7767 31.2702 52.2121C34.8735 50.654 38.7138 49.875 42.791 49.875C46.8815 49.875 50.725 50.654 54.3217 52.2121C57.9206 53.7723 61.0565 55.89 63.7293 58.565C66.4022 61.24 68.5187 64.3748 70.079 67.9693C71.637 71.5682 72.416 75.4118 72.416 79.5C72.416 83.5773 71.637 87.4176 70.079 91.0208C68.5187 94.6241 66.4011 97.7622 63.726 100.435C61.051 103.108 57.9162 105.225 54.3217 106.788C50.7272 108.35 46.8837 109.129 42.791 109.125ZM42.791 105.86C44.7221 103.378 46.3153 100.941 47.5705 98.5489C48.8236 96.1569 49.8429 93.4797 50.6285 90.5172H34.9536C35.8248 93.6465 36.8649 96.4071 38.0741 98.799C39.2854 101.191 40.8577 103.545 42.791 105.86ZM38.6007 105.366C37.0646 103.556 35.6624 101.317 34.394 98.6509C33.1256 95.9869 32.182 93.2745 31.5632 90.5139H18.9396C20.8268 94.6066 23.5008 97.9641 26.9614 100.586C30.4242 103.207 34.304 104.8 38.6007 105.366ZM46.9813 105.366C51.278 104.8 55.1578 103.207 58.6207 100.586C62.0813 97.9641 64.7552 94.6066 66.6424 90.5139H54.0222C53.1883 93.3162 52.1383 96.0494 50.8721 98.7135C49.6037 101.38 48.3068 103.599 46.9813 105.366ZM17.5966 87.2255H30.8785C30.6283 85.8738 30.4528 84.5571 30.3518 83.2755C30.2465 81.9962 30.1938 80.7377 30.1938 79.5C30.1938 78.2623 30.2454 77.0038 30.3485 75.7245C30.4517 74.4451 30.6272 73.1284 30.8752 71.7745H17.5999C17.2422 72.9156 16.9624 74.1587 16.7605 75.5039C16.5586 76.8469 16.4577 78.1789 16.4577 79.5C16.4577 80.8211 16.5575 82.1542 16.7572 83.4994C16.9569 84.8446 17.2367 86.0855 17.5966 87.2222M34.1702 87.2222H51.4119C51.6621 85.8727 51.8376 84.5779 51.9386 83.3381C52.0439 82.1004 52.0966 80.8211 52.0966 79.5C52.0966 78.1789 52.045 76.8996 51.9419 75.6619C51.8387 74.4242 51.6632 73.1295 51.4152 71.7778H34.1669C33.9189 73.1273 33.7433 74.4221 33.6402 75.6619C33.5371 76.8996 33.4855 78.1789 33.4855 79.5C33.4855 80.8211 33.5371 82.1004 33.6402 83.3381C33.7433 84.5758 33.9222 85.8705 34.1702 87.2222ZM54.7069 87.2222H67.9854C68.3431 86.0833 68.6229 84.8424 68.8248 83.4994C69.0245 82.1542 69.1244 80.8211 69.1244 79.5C69.1244 78.1789 69.0245 76.8458 68.8248 75.5006C68.6251 74.1554 68.3453 72.9145 67.9854 71.7778H54.7036C54.9537 73.1273 55.1293 74.4429 55.2302 75.7245C55.3356 77.006 55.3882 78.2645 55.3882 79.5C55.3882 80.7355 55.3367 81.994 55.2335 83.2755C55.1304 84.5571 54.9548 85.8738 54.7069 87.2255M54.0222 68.4861H66.6424C64.7135 64.3079 62.0714 60.9504 58.7161 58.4136C55.3608 55.8768 51.4492 54.2628 46.9813 53.5715C48.5174 55.5926 49.8988 57.9045 51.1255 60.5071C52.3522 63.1075 53.3178 65.7672 54.0222 68.4861ZM34.9536 68.4861H50.6285C49.7595 65.3963 48.6875 62.6028 47.4125 60.1055C46.1376 57.6082 44.5971 55.2865 42.791 53.1403C40.985 55.2843 39.4445 57.606 38.1695 60.1055C36.8946 62.605 35.8204 65.3985 34.9536 68.4861ZM18.9429 68.4861H31.5632C32.2676 65.7694 33.2331 63.1097 34.4598 60.5071C35.6865 57.9045 37.0679 55.5926 38.604 53.5715C34.0966 54.265 30.1752 55.8889 26.8396 58.4432C23.5041 61.0019 20.8707 64.3485 18.9396 68.4828" fill="#00A19D"/>
</svg>
