<svg width="25" height="24" viewBox="0 0 25 24" fill="none" xmlns="http://www.w3.org/2000/svg">
<path d="M11.05 3C7.198 3.007 5.18 3.102 3.891 4.39C2.5 5.783 2.5 8.022 2.5 12.5C2.5 16.978 2.5 19.217 3.891 20.609C5.283 22 7.521 22 12.001 22C16.479 22 18.718 22 20.109 20.609C21.399 19.319 21.493 17.302 21.5 13.449" stroke="#00A19D" stroke-width="1.5" stroke-linecap="round" stroke-linejoin="round"/>
<path d="M11.5558 13.0001C10.8318 3.86615 17.3018 1.27615 22.4798 2.16415C22.6888 5.19115 21.2068 6.32415 18.3868 6.84815C18.9318 7.41815 19.8938 8.13415 19.7898 9.02815C19.7158 9.66615 19.2838 9.97815 18.4178 10.6041C16.5218 11.9741 14.3258 12.8381 11.5558 13.0001Z" stroke="#00A19D" stroke-width="1.5" stroke-linecap="round" stroke-linejoin="round"/>
<path d="M9.5 17C11.5 11.5 13.46 9.636 15.5 8" stroke="#00A19D" stroke-width="1.5" stroke-linecap="round" stroke-linejoin="round"/>
</svg>
