<svg width="281" height="227" viewBox="0 0 281 227" fill="none" xmlns="http://www.w3.org/2000/svg">
<path d="M135.598 227C198.979 227 250.36 176.184 250.36 113.5C250.36 50.8157 198.979 0 135.598 0C72.2166 0 20.8359 50.8157 20.8359 113.5C20.8359 176.184 72.2166 227 135.598 227Z" fill="#00A19D"/>
<path fill-rule="evenodd" clip-rule="evenodd" d="M234.613 185.855C235.658 185.487 236.759 184.997 237.608 184.288C238.616 183.446 239.025 182.361 239.301 181.219C239.654 179.752 239.795 178.189 240.224 176.719C240.383 176.174 240.688 175.968 240.819 175.876C241.15 175.645 241.485 175.583 241.8 175.606C242.173 175.633 242.686 175.773 243.023 176.391C243.071 176.48 243.134 176.615 243.176 176.8C243.206 176.935 243.226 177.359 243.259 177.534C243.34 177.964 243.408 178.395 243.471 178.827C243.684 180.268 243.806 181.491 244.476 182.814C245.385 184.611 246.296 185.71 247.532 186.197C248.727 186.667 250.156 186.579 251.981 186.21C252.155 186.168 252.327 186.132 252.497 186.103C253.301 185.964 254.071 186.487 254.229 187.28C254.387 188.072 253.875 188.844 253.078 189.018C252.911 189.055 252.747 189.089 252.585 189.121C250.118 189.725 247.263 191.88 245.603 193.767C245.092 194.349 244.343 195.976 243.579 197.014C243.015 197.78 242.382 198.284 241.85 198.463C241.493 198.583 241.193 198.564 240.945 198.504C240.584 198.416 240.285 198.223 240.055 197.915C239.93 197.747 239.814 197.522 239.759 197.234C239.732 197.096 239.729 196.744 239.73 196.584C239.574 196.055 239.384 195.538 239.245 195.003C238.914 193.728 238.264 192.921 237.492 191.854C236.77 190.856 235.995 190.229 234.858 189.729C234.711 189.693 233.517 189.404 233.096 189.238C232.481 188.995 232.187 188.588 232.081 188.369C231.9 187.996 231.881 187.671 231.917 187.4C231.971 187 232.153 186.658 232.475 186.381C232.674 186.21 232.972 186.043 233.371 185.961C233.68 185.898 234.498 185.861 234.613 185.855ZM241.612 183.777C241.667 183.899 241.726 184.022 241.788 184.145C243.12 186.776 244.61 188.245 246.42 188.958L246.481 188.981C245.27 189.87 244.173 190.864 243.335 191.817C242.99 192.209 242.534 193.024 242.04 193.86C241.592 192.419 240.859 191.4 239.937 190.125C239.232 189.152 238.494 188.419 237.587 187.822C238.291 187.465 238.962 187.047 239.547 186.558C240.521 185.744 241.165 184.801 241.612 183.777Z" fill="#E3E3E3"/>
<ellipse cx="5.43521" cy="91.3833" rx="5.43521" ry="5.37545" fill="#E3E3E3"/>
<path d="M52.4324 43.2141C52.5968 43.7839 53.1981 44.1118 53.7734 43.9453L52.4324 43.2141ZM52.4324 43.2141L51.9526 43.3548C50.5758 38.6595 47.8722 34.9983 43.7194 32.3479L43.7192 32.3478M52.4324 43.2141L51.952 43.3527C52.1943 44.1923 53.0761 44.6676 53.9125 44.4255L53.9131 44.4254C54.7452 44.1833 55.2368 43.3098 54.9885 42.4699C53.3933 37.0316 50.2397 32.7682 45.4256 29.6942L43.7192 32.3478M43.7192 32.3478C42.9859 31.8793 42.768 30.9033 43.2438 30.169M43.7192 32.3478L43.2438 30.169M43.2438 30.169C43.7142 29.4364 44.6935 29.2265 45.4255 29.6942L43.2438 30.169Z" fill="black" stroke="black"/>
<path d="M103.254 45.0157L103.253 45.0159C101.993 45.652 100.918 45.6099 100.059 45.1845C99.2404 44.7796 98.642 44.006 98.2781 43.046L98.278 43.0458C97.9313 42.1301 97.7929 41.0037 97.7785 39.9394C97.7656 38.9907 97.8508 38.0582 97.9936 37.3177C97.1708 36.4953 96.2756 35.745 95.3213 35.0723C87.7518 29.7366 76.5303 31.6436 67.7982 39.7972C66.343 41.1565 65.231 43.3009 64.3864 45.9632C63.5443 48.6174 62.9834 51.7363 62.5981 54.9941L62.5981 54.9942C61.5534 63.8174 61.935 73.5397 62.1154 78.1339C62.1424 78.8231 62.1649 79.3969 62.1774 79.8349L62.1775 79.8361C62.1888 80.2656 62.1743 80.6137 62.1501 80.873C62.138 81.0023 62.1232 81.1128 62.1071 81.2023C62.0939 81.2753 62.0734 81.3736 62.0377 81.4565C61.7439 82.1481 61.1976 82.339 60.8576 82.4031L60.8524 82.4041C60.3723 82.4893 59.9717 82.3979 59.6489 82.2314L59.6463 82.23C59.2058 81.9995 58.856 81.5946 58.6989 81.0122L58.6979 81.0086C58.6146 80.6901 58.5994 80.2871 58.6082 79.9093L58.6084 79.9041C58.611 79.8277 58.6167 79.7525 58.6221 79.6866C58.6233 79.6716 58.6245 79.6573 58.6256 79.6434C58.6298 79.5928 58.6334 79.5487 58.6361 79.5051C58.6394 79.4506 58.6403 79.4096 58.639 79.3779C58.6376 79.3456 58.6345 79.3359 58.6358 79.3405C58.3454 78.3328 58.0032 77.3459 57.655 76.3415C57.6041 76.1948 57.5532 76.0477 57.5022 75.9002L57.5018 75.8991C56.1854 72.0605 54.4809 68.4567 52.5792 64.8435L53.0217 64.6106L52.5792 64.8434C52.0685 63.8728 51.5596 62.8985 51.0499 61.9229C45.4956 51.289 39.8563 40.4926 30.8324 32.5235L30.8322 32.5234C30.181 31.9479 30.1153 30.9501 30.6992 30.2974C31.2778 29.6457 32.2754 29.5909 32.929 30.1636L32.9304 30.1649C42.3604 38.4905 48.2528 49.757 53.9512 60.6526C54.4283 61.5649 54.9041 62.4746 55.3805 63.3798L55.3805 63.3798C56.5898 65.6783 57.7275 67.9844 58.7439 70.3532C58.6959 64.9766 58.8629 58.3209 59.7644 52.3204C60.2348 49.187 60.9198 46.22 61.8729 43.6733C62.8241 41.1316 64.0547 38.9753 65.6362 37.4978L65.6363 37.4977C75.4316 28.3511 88.3213 26.2753 97.1477 32.4997L97.1479 32.4998C97.9119 33.039 98.6471 33.6225 99.3438 34.2482C104.08 26.3672 113.716 23.2767 122.247 27.1503C123.044 27.511 123.393 28.4468 123.031 29.2386L123.031 29.2386L123.03 29.2416C122.663 30.0306 121.729 30.3779 120.934 30.0184L120.934 30.0181C113.632 26.7026 105.372 29.572 101.631 36.6231C102.403 37.5549 103.1 38.5527 103.701 39.6108C103.996 40.1301 104.542 41.2728 104.629 42.2973C104.729 43.4185 104.338 44.4675 103.254 45.0157ZM101.237 41.9321L101.238 41.9327C101.296 42.0861 101.341 42.1925 101.389 42.2707C101.41 42.3042 101.426 42.3255 101.439 42.339C101.361 42.0111 101.212 41.6703 101.08 41.409C101.124 41.5952 101.176 41.771 101.237 41.9321Z" fill="black" stroke="black"/>
<rect x="83" y="58.7734" width="197.556" height="70.4335" rx="24" fill="black"/>
<rect x="98" y="83.0234" width="84.5766" height="9.23718" rx="4.61859" fill="#6B6B6B"/>
<rect x="98" y="96.8828" width="166.663" height="9.23719" rx="4.61859" fill="white"/>
<rect y="117.773" width="197.556" height="70.4335" rx="24" fill="#E1DCEB"/>
<rect x="14" y="142.023" width="84.5766" height="9.23718" rx="4.61859" fill="black"/>
<rect x="14" y="155.883" width="166.663" height="9.23719" rx="4.61859" fill="white"/>
</svg>
