<svg width="24" height="24" viewBox="0 0 24 24" fill="none" xmlns="http://www.w3.org/2000/svg">
<path d="M18.0353 4.64844C19.1869 5.49805 20.123 6.60622 20.768 7.88372C21.4131 9.16121 21.7491 10.5723 21.7491 12.0034C21.7491 13.4345 21.4131 14.8457 20.768 16.1232C20.123 17.4007 19.1869 18.5088 18.0353 19.3584M16.0353 7.27844C16.7934 7.81475 17.4147 8.52188 17.849 9.34269C18.2833 10.1635 18.5184 11.075 18.5353 12.0034C18.5184 12.9319 18.2833 13.8434 17.849 14.6642C17.4147 15.485 16.7934 16.1921 16.0353 16.7284M14.1953 9.72844C14.5501 9.99223 14.8382 10.3353 15.0368 10.7304C15.2353 11.1254 15.3387 11.5613 15.3387 12.0034C15.3387 12.4455 15.2353 12.8815 15.0368 13.2765C14.8382 13.6715 14.5501 14.0146 14.1953 14.2784" stroke="#00A19D" stroke-linecap="round" stroke-linejoin="round"/>
<path d="M10.225 4.29688H3.04C2.6037 4.29688 2.25 4.65057 2.25 5.08687V18.9019C2.25 19.3382 2.6037 19.6919 3.04 19.6919H10.225C10.6613 19.6919 11.015 19.3382 11.015 18.9019V5.08687C11.015 4.65057 10.6613 4.29688 10.225 4.29688Z" stroke="#00A19D" stroke-linecap="round" stroke-linejoin="round"/>
<path d="M2.25 6.27344H11.015M2.25 17.7234H11.015" stroke="#00A19D" stroke-linecap="round" stroke-linejoin="round"/>
</svg>
